<?xml version="1.0" encoding="UTF-8"?>
<!-- Generator: Adobe Illustrator 24.0.3, SVG Export Plug-In . SVG Version: 6.00 Build 0)  -->
<svg version="1.1" id="Layer_1" xmlns="http://www.w3.org/2000/svg" xmlns:xlink="http://www.w3.org/1999/xlink" x="0px" y="0px" viewBox="0 0 245.9 61.4" style="enable-background:new 0 0 245.9 61.4;" xml:space="preserve">
<style type="text/css">
	.st0{fill:#FFFFFF;}
	.st1{fill:#525C86;}
	.st2{fill:#FDB940;}
</style>
<title>logo-eclipseche</title>
<g>
	<path class="st0" d="M82.5,18.4v2H68v8.8h13.6v2H68v9.6h14.7v2h-17V18.4H82.5z"/>
	<path class="st0" d="M95.5,27.6c-0.9-0.8-2.1-1.2-3.3-1.1c-0.9,0-1.9,0.2-2.7,0.6c-0.8,0.4-1.4,1-1.9,1.7c-0.5,0.7-0.9,1.5-1.2,2.4   c-0.5,1.8-0.5,3.7,0,5.5c0.2,0.9,0.6,1.7,1.2,2.4c0.5,0.7,1.2,1.3,1.9,1.7c0.8,0.4,1.8,0.7,2.7,0.6c0.6,0,1.3-0.1,1.9-0.4   c0.6-0.2,1.1-0.6,1.6-1c0.5-0.5,0.8-1,1.1-1.6c0.3-0.6,0.5-1.3,0.5-2h2.2c-0.2,1.9-1,3.7-2.4,5c-1.3,1.2-3.1,1.8-4.9,1.8   c-1.2,0-2.4-0.2-3.6-0.7c-1-0.5-1.9-1.2-2.6-2c-0.7-0.9-1.3-1.9-1.6-3c-0.7-2.3-0.7-4.9,0-7.2c0.3-1.1,0.9-2.1,1.6-3   c0.7-0.8,1.6-1.5,2.6-2c1.1-0.5,2.3-0.8,3.6-0.8c1.7-0.1,3.4,0.5,4.8,1.5c1.4,1.1,2.2,2.8,2.3,4.5h-2.2   C96.9,29.5,96.3,28.5,95.5,27.6z"/>
	<path class="st0" d="M103.5,18.4v24.4h-2.2V18.4H103.5z"/>
	<path class="st0" d="M109.1,18.4v3.5H107v-3.5H109.1z M109.1,25.2v17.6H107V25.2H109.1z"/>
	<path class="st0" d="M114.5,25.2v3.4h0.1c0.5-1.2,1.3-2.2,2.4-2.9c1.2-0.7,2.5-1,3.8-1c1.2,0,2.4,0.2,3.5,0.8c1,0.5,1.8,1.2,2.5,2   c0.7,0.9,1.2,1.9,1.5,3c0.6,2.3,0.6,4.8,0,7.1c-0.3,1.1-0.8,2.1-1.5,3c-0.7,0.8-1.5,1.5-2.5,2c-1.7,0.8-3.6,0.9-5.4,0.5   c-0.6-0.2-1.2-0.4-1.8-0.7c-0.5-0.3-1-0.7-1.5-1.2c-0.4-0.5-0.8-1.1-1-1.7h-0.1v9.8h-2.1V25.2H114.5z M126.3,31.3   c-0.2-0.9-0.5-1.7-1-2.4c-0.5-0.7-1.1-1.3-1.8-1.7c-0.8-0.5-1.7-0.7-2.6-0.7c-1,0-2.1,0.2-3,0.6c-0.8,0.4-1.4,0.9-1.9,1.6   c-0.5,0.7-0.8,1.5-1,2.4c-0.2,0.9-0.3,1.9-0.3,2.9c0,0.9,0.1,1.8,0.3,2.7c0.2,0.9,0.6,1.7,1.1,2.4c0.5,0.7,1.2,1.3,1.9,1.7   c0.9,0.5,1.9,0.7,2.9,0.7c0.9,0,1.8-0.2,2.6-0.7c0.7-0.4,1.3-1,1.8-1.7c0.5-0.7,0.8-1.6,1-2.4C126.7,35,126.7,33.1,126.3,31.3   L126.3,31.3z"/>
	<path class="st0" d="M141.1,28.6c-0.2-0.5-0.6-0.9-1-1.2c-0.4-0.3-0.9-0.6-1.5-0.7c-0.6-0.1-1.2-0.2-1.7-0.2c-0.5,0-1,0.1-1.5,0.1   c-0.5,0.1-0.9,0.3-1.3,0.5c-0.4,0.2-0.7,0.6-1,0.9c-0.3,0.4-0.4,0.9-0.4,1.4c0,0.4,0.1,0.9,0.4,1.2c0.2,0.3,0.5,0.6,0.9,0.8   c0.4,0.2,0.8,0.4,1.2,0.6c0.4,0.1,0.8,0.3,1.2,0.4l2.9,0.6c0.6,0.1,1.2,0.3,1.8,0.5c0.6,0.2,1.1,0.5,1.6,0.9   c0.5,0.4,0.9,0.9,1.1,1.4c0.3,0.6,0.5,1.3,0.4,2c0,0.9-0.2,1.7-0.7,2.4c-0.4,0.7-1,1.2-1.7,1.6c-0.7,0.4-1.5,0.7-2.3,0.9   c-0.8,0.2-1.7,0.3-2.5,0.3c-1.8,0.1-3.5-0.4-5-1.5c-1.4-1.2-2.2-2.9-2.2-4.7h2.2c0,1.3,0.6,2.5,1.6,3.3c1,0.8,2.3,1.2,3.6,1.1   c0.5,0,1.1-0.1,1.6-0.2c0.5-0.1,1.1-0.3,1.5-0.6c0.5-0.2,0.9-0.6,1.2-1c0.3-0.5,0.5-1,0.5-1.5c0-0.5-0.1-0.9-0.3-1.3   c-0.2-0.4-0.5-0.7-0.9-0.9c-0.4-0.3-0.8-0.5-1.2-0.6c-0.5-0.2-0.9-0.3-1.4-0.4l-2.8-0.7c-0.7-0.2-1.3-0.4-2-0.6   c-0.6-0.2-1.1-0.5-1.5-0.9c-0.4-0.4-0.8-0.8-1-1.3c-0.3-0.6-0.4-1.2-0.4-1.9c0-0.8,0.2-1.6,0.6-2.3c0.4-0.6,0.9-1.2,1.5-1.5   c0.7-0.4,1.4-0.7,2.1-0.9c0.8-0.2,1.6-0.3,2.3-0.3c0.8,0,1.7,0.1,2.5,0.3c0.7,0.2,1.4,0.6,2,1.1c0.6,0.5,1.1,1.1,1.4,1.8   c0.4,0.8,0.6,1.6,0.6,2.5h-2.2C141.5,29.7,141.4,29.2,141.1,28.6z"/>
	<path class="st0" d="M148,37c0.2,0.8,0.5,1.6,1,2.2c0.5,0.7,1.1,1.2,1.8,1.6c0.8,0.5,1.7,0.7,2.6,0.6c1.3,0.1,2.7-0.4,3.7-1.2   c0.9-0.9,1.6-2,1.8-3.3h2.2c-0.3,1.8-1.2,3.4-2.5,4.6c-1.5,1.2-3.3,1.8-5.2,1.6c-1.2,0-2.5-0.2-3.6-0.7c-1-0.5-1.8-1.1-2.5-2   c-0.7-0.9-1.1-1.9-1.4-3c-0.3-1.2-0.5-2.4-0.5-3.6c0-1.2,0.2-2.3,0.5-3.4c0.3-1.1,0.8-2.1,1.4-3c0.7-0.9,1.5-1.6,2.5-2.1   c1.1-0.6,2.4-0.8,3.6-0.8c2.4-0.1,4.7,1.1,6.1,3.1c0.6,1,1.1,2,1.3,3.2c0.3,1.2,0.4,2.4,0.3,3.6h-13.5   C147.7,35.4,147.8,36.2,148,37z M158.6,30.4c-0.2-0.7-0.6-1.4-1.1-2c-0.5-0.6-1.1-1.1-1.7-1.4c-0.7-0.4-1.5-0.5-2.3-0.5   c-0.8,0-1.6,0.2-2.4,0.5c-0.7,0.3-1.3,0.8-1.7,1.4c-0.5,0.6-0.9,1.3-1.1,2c-0.3,0.8-0.5,1.5-0.6,2.3h11.4   C159.1,32,158.9,31.2,158.6,30.4L158.6,30.4z"/>
	<path class="st0" d="M189.8,23.3c-0.5-0.7-1-1.4-1.7-1.9c-0.7-0.5-1.4-0.9-2.2-1.1c-0.8-0.3-1.7-0.4-2.5-0.4   c-1.4,0-2.9,0.3-4.2,0.9c-1.1,0.6-2.1,1.4-2.8,2.4c-0.8,1-1.3,2.2-1.6,3.4c-0.7,2.6-0.7,5.3,0,7.8c0.3,1.2,0.9,2.4,1.6,3.5   c0.8,1,1.7,1.9,2.8,2.4c1.3,0.6,2.7,1,4.2,0.9c1.1,0,2.1-0.2,3.1-0.6c0.9-0.4,1.7-1,2.4-1.7c0.7-0.7,1.2-1.6,1.6-2.5   c0.4-1,0.7-2,0.8-3.1h2.3c-0.1,1.4-0.5,2.8-1.1,4.1c-0.5,1.1-1.2,2.2-2.1,3.1c-0.9,0.9-1.9,1.5-3.1,2c-1.2,0.5-2.6,0.7-3.9,0.7   c-1.7,0-3.4-0.3-5-1c-1.4-0.7-2.6-1.6-3.6-2.8c-1-1.2-1.7-2.5-2.2-4c-1-3.1-1-6.5,0-9.6c0.5-1.5,1.2-2.8,2.2-4   c1-1.2,2.2-2.1,3.6-2.8c2.7-1.2,5.7-1.4,8.4-0.5c1.1,0.3,2.1,0.8,3,1.5c0.9,0.7,1.7,1.5,2.2,2.5c0.6,1,1,2.2,1.1,3.4h-2.3   C190.6,25,190.3,24.1,189.8,23.3z"/>
	<path class="st0" d="M197.9,18.4v9.8h0.1c0.4-1.1,1.2-2,2.2-2.6c1-0.7,2.2-1,3.5-1c1.1,0,2.1,0.1,3.1,0.5c0.8,0.3,1.5,0.7,2,1.4   c0.5,0.6,0.9,1.3,1.1,2.1c0.2,0.9,0.3,1.9,0.3,2.8v11.3H208v-11c0-0.7-0.1-1.4-0.2-2.1c-0.1-0.6-0.4-1.2-0.7-1.7   c-0.4-0.5-0.8-0.9-1.4-1.1c-0.7-0.3-1.4-0.4-2.2-0.4c-0.8,0-1.6,0.1-2.3,0.5c-0.7,0.3-1.2,0.7-1.7,1.3c-0.5,0.6-0.9,1.2-1.1,1.9   c-0.3,0.8-0.4,1.6-0.4,2.4v10.3h-2.2V18.4H197.9z"/>
	<path class="st0" d="M215,37c0.2,0.8,0.5,1.6,1,2.2c0.5,0.7,1.1,1.2,1.8,1.6c0.8,0.5,1.7,0.7,2.6,0.6c1.3,0.1,2.7-0.4,3.7-1.2   c0.9-0.9,1.6-2,1.8-3.3h2.2c-0.3,1.8-1.2,3.4-2.5,4.6c-1.4,1.2-3.2,1.8-5.1,1.7c-1.2,0-2.5-0.2-3.6-0.7c-1-0.5-1.8-1.1-2.5-2   c-0.7-0.9-1.1-1.9-1.4-3c-0.3-1.2-0.5-2.4-0.5-3.6c0-1.2,0.2-2.3,0.5-3.4c0.3-1.1,0.8-2.1,1.4-3c0.7-0.9,1.5-1.6,2.5-2.1   c1.1-0.6,2.4-0.8,3.6-0.8c2.4-0.1,4.7,1.1,6.1,3.1c0.6,1,1.1,2,1.3,3.2c0.3,1.2,0.4,2.4,0.3,3.6h-13.6   C214.7,35.4,214.8,36.2,215,37z M225.7,30.4c-0.2-0.7-0.6-1.4-1.1-2c-0.5-0.6-1.1-1.1-1.7-1.4c-0.7-0.4-1.5-0.5-2.3-0.5   c-0.8,0-1.6,0.2-2.4,0.5c-0.7,0.3-1.3,0.8-1.7,1.4c-0.5,0.6-0.9,1.3-1.1,2c-0.3,0.8-0.5,1.5-0.6,2.3h11.4   C226.1,32,225.9,31.2,225.7,30.4L225.7,30.4z"/>
	<polygon class="st1" points="3.2,27.3 3.2,44.5 27.2,58.4 51.2,44.5 51.2,27.3 27.2,41.1  "/>
	<polygon class="st2" points="27.2,3 3.2,16.9 3.2,34.1 27.2,20.3 36.3,25.5 51.2,16.9  "/>
	<g>
		<path class="st0" d="M229.8,19.1c0-0.1,0-0.1,0.1-0.1h4.9c0.1,0,0.2,0,0.2,0.1v0.7c0,0.1,0,0.1-0.1,0.1h-1.7c-0.1,0-0.1,0-0.1,0.1    v5.3c0,0.1,0,0.2-0.1,0.2h-1c-0.1,0-0.1,0-0.1-0.1V20c0-0.1,0-0.1-0.1-0.1H230c-0.1,0-0.1,0-0.1-0.1L229.8,19.1L229.8,19.1z     M235.9,25.3c0,0,0-0.1,0-0.1v-6.1c0-0.1,0-0.2,0.1-0.2h1.5c0.1,0,0.1,0,0.1,0c0,0,0,0.1,0.1,0.1l1.5,4.1c0,0.1,0.1,0.1,0.1,0    l1.5-4c0-0.1,0.1-0.2,0.2-0.2h1.5c0.1,0,0.1,0,0.1,0.1v6.1c0,0.1,0,0.1,0,0.1c0,0-0.1,0-0.1,0h-0.9c-0.1,0-0.1,0-0.1,0    s0-0.1,0-0.1v-4.5c0,0,0-0.1,0-0.1c0,0,0,0,0,0.1l-1.7,4.6c0,0.1-0.1,0.1-0.2,0.1h-0.6c-0.1,0-0.2,0-0.2-0.1l-1.6-4.5    c0,0,0-0.1,0-0.1s0,0,0,0.1v4.5c0,0,0,0.1,0,0.1c0,0-0.1,0-0.1,0H236C236,25.4,236,25.4,235.9,25.3z"/>
	</g>
</g>
</svg>