<svg id="a8682e74-24d3-4691-84b8-bf73ef96de53" data-name="artwork" xmlns="http://www.w3.org/2000/svg" width="760" height="306.128"><defs><style>.b2bf904d-2ac2-46a4-8251-f5249a6c6571{fill:#e8e8e8}.b30099dd-ff73-47ee-9ac1-50213ddffbea{font-size:16px}.a05e1dc7-dea0-42b4-9512-01b67be3a851,.a3a555f9-78aa-41b6-a243-2e8cc51bb93f,.b30099dd-ff73-47ee-9ac1-50213ddffbea,.b9e59d28-6675-42db-9183-8c439532a3e4,.e3d967a2-cc90-4faf-ba4a-1ac40f5e4042{fill:#151515}.b30099dd-ff73-47ee-9ac1-50213ddffbea,.e3d967a2-cc90-4faf-ba4a-1ac40f5e4042{font-family:RedHatText,&quot;Red Hat Text&quot;,Overpass,&quot;Helvetica Neue&quot;,Arial,sans-serif;font-weight:700}.e3d2c72e-d252-42b7-884c-2cf3bae36e69,.fc3150d8-4e9c-4e70-8fc8-9e6c2ec3bfe1{fill:none}.fc3150d8-4e9c-4e70-8fc8-9e6c2ec3bfe1{stroke:#151515;stroke-linecap:round;stroke-linejoin:round}.f1813401-186e-4d4d-af92-68d74ece3648{fill:#fff}.a69140f5-535f-4134-becd-e68545a2fa95{fill:#06c}.e3d2c72e-d252-42b7-884c-2cf3bae36e69{stroke:#f3f3f3;stroke-miterlimit:10;stroke-width:1.5px}.a3a555f9-78aa-41b6-a243-2e8cc51bb93f,.e3d967a2-cc90-4faf-ba4a-1ac40f5e4042{font-size:12px}.a3a555f9-78aa-41b6-a243-2e8cc51bb93f,.b9e59d28-6675-42db-9183-8c439532a3e4{font-family:RedHatText,&quot;Red Hat Text&quot;,Overpass,&quot;Helvetica Neue&quot;,Arial,sans-serif}.a3a555f9-78aa-41b6-a243-2e8cc51bb93f{font-weight:500}.b9e59d28-6675-42db-9183-8c439532a3e4{font-size:11px;font-style:italic}</style></defs><path class="b2bf904d-2ac2-46a4-8251-f5249a6c6571" d="M72.436 16H317.5v250.128H72.436z"/><text class="b30099dd-ff73-47ee-9ac1-50213ddffbea" transform="translate(92.5 49.536)">Browser</text><path class="fc3150d8-4e9c-4e70-8fc8-9e6c2ec3bfe1" d="M327.176 143.064h105.627"/><path class="a05e1dc7-dea0-42b4-9512-01b67be3a851" d="M328.635 148.05L320 143.064l8.635-4.986v9.972zM431.344 148.05l8.635-4.986-8.635-4.986v9.972z"/><path class="f1813401-186e-4d4d-af92-68d74ece3648" d="M93 130.058h204v115.5H93z"/><path class="a69140f5-535f-4134-becd-e68545a2fa95" d="M296.5 130.558v114.5h-203v-114.5h203m1-1h-205v116.5h205v-116.5z"/><path class="e3d2c72e-d252-42b7-884c-2cf3bae36e69" d="M282.5 181.058v50h-165"/><path class="e3d2c72e-d252-42b7-884c-2cf3bae36e69" d="M277.5 176.058v50h-165"/><path class="b2bf904d-2ac2-46a4-8251-f5249a6c6571" d="M107.5 171.058h165v50h-165z"/><text class="e3d967a2-cc90-4faf-ba4a-1ac40f5e4042" transform="translate(107.5 154.662)">Web worker</text><text class="a3a555f9-78aa-41b6-a243-2e8cc51bb93f" transform="translate(166.619 199.383)">Plug-ins</text><path class="f1813401-186e-4d4d-af92-68d74ece3648" d="M92.5 69.628h205v50h-205z"/><text class="a3a555f9-78aa-41b6-a243-2e8cc51bb93f" transform="translate(140.923 97.953)">Extension manager</text><path class="fc3150d8-4e9c-4e70-8fc8-9e6c2ec3bfe1" d="M62.76 93.064H28.75v102.994h54.074"/><path class="a05e1dc7-dea0-42b4-9512-01b67be3a851" d="M61.301 88.078l8.635 4.986-8.635 4.986v-9.972zM81.365 201.044L90 196.058l-8.635-4.986v9.972z"/><path class="f1813401-186e-4d4d-af92-68d74ece3648" d="M15.686 134.955h26.129v19.212H15.686z"/><text class="b9e59d28-6675-42db-9183-8c439532a3e4" transform="translate(1.265 147.685)">Plug-in API</text><text class="b9e59d28-6675-42db-9183-8c439532a3e4" transform="translate(352.765 136.188)">JSON RPC</text><path class="b2bf904d-2ac2-46a4-8251-f5249a6c6571" d="M442.479 16h245.064v250.128H442.479z"/><text class="b30099dd-ff73-47ee-9ac1-50213ddffbea" transform="translate(462.543 49.536)">Server</text><path class="f1813401-186e-4d4d-af92-68d74ece3648" d="M463.043 130.058h204v115.5h-204z"/><path class="a69140f5-535f-4134-becd-e68545a2fa95" d="M666.543 130.558v114.5h-203v-114.5h203m1-1h-205v116.5h205v-116.5z"/><path class="e3d2c72e-d252-42b7-884c-2cf3bae36e69" d="M652.543 181.058v50h-165"/><path class="e3d2c72e-d252-42b7-884c-2cf3bae36e69" d="M647.543 176.058v50h-165"/><path class="b2bf904d-2ac2-46a4-8251-f5249a6c6571" d="M477.543 171.058h165v50h-165z"/><text class="e3d967a2-cc90-4faf-ba4a-1ac40f5e4042" transform="translate(477.543 154.662)">Node.js</text><text class="a3a555f9-78aa-41b6-a243-2e8cc51bb93f" transform="translate(536.662 199.383)">Plug-ins</text><g><path class="fc3150d8-4e9c-4e70-8fc8-9e6c2ec3bfe1" d="M697.283 93.064h34.01v102.994h-54.074"/><path class="a05e1dc7-dea0-42b4-9512-01b67be3a851" d="M698.742 98.05l-8.635-4.986 8.635-4.986v9.972zM678.678 191.072l-8.635 4.986 8.635 4.986v-9.972z"/></g><path class="f1813401-186e-4d4d-af92-68d74ece3648" d="M718.229 134.955h26.129v19.212h-26.129z"/><text class="b9e59d28-6675-42db-9183-8c439532a3e4" transform="translate(704.397 147.685)">Plug-in API</text><g><text transform="translate(668.302 289.145)" font-size="10" fill="#f3f3f3" font-family="RedHatText,&quot;Red Hat Text&quot;,Overpass,&quot;Helvetica Neue&quot;,Arial,sans-serif">124_Codeready_1120</text><path fill="none" d="M0 266.128h760v40H0z"/></g></svg>