<svg id="a09b9d5e-b60f-4a33-9d6b-722309d3a9b0" data-name="artwork" xmlns="http://www.w3.org/2000/svg" width="760" height="609.123"><defs><style>.af4260a3-0ab4-4592-b0e4-2ae43d2cdbf7{fill:#f3f3f3}.bc806f14-d82d-4a3c-bca5-3de433ba80f8{fill:#dedede}.a4208f3a-203a-436e-a383-27501fc47bb8{fill:#e8e8e8}.f7e0d3cd-2bcb-4a6c-898e-d6f0ebcded07{font-size:12px;font-family:RedHatText,&quot;Red Hat Text&quot;,Overpass,&quot;Helvetica Neue&quot;,Arial,sans-serif;font-weight:700}.a6823188-ea3a-4166-a8e5-1b1e27a9c647,.f7e0d3cd-2bcb-4a6c-898e-d6f0ebcded07{fill:#151515}.a4f7a91a-3f9f-4d76-aaa0-e4ff85438a9b,.b842441e-2f8c-46bc-b5ec-803e13696a68,.f1d727a1-fe40-47a7-a316-a3e5e32da839{fill:none}.a4f7a91a-3f9f-4d76-aaa0-e4ff85438a9b{stroke:#06c}.a4f7a91a-3f9f-4d76-aaa0-e4ff85438a9b,.b842441e-2f8c-46bc-b5ec-803e13696a68,.f1d727a1-fe40-47a7-a316-a3e5e32da839{stroke-linecap:round;stroke-linejoin:round}.a8433ddf-6d12-4f5e-909e-718d76d8057e{fill:#06c}.a6823188-ea3a-4166-a8e5-1b1e27a9c647{font-size:11px;font-family:RedHatText,&quot;Red Hat Text&quot;,Overpass,&quot;Helvetica Neue&quot;,Arial,sans-serif;font-weight:500}.b842441e-2f8c-46bc-b5ec-803e13696a68,.f1d727a1-fe40-47a7-a316-a3e5e32da839{stroke:#b9b9b9}.b842441e-2f8c-46bc-b5ec-803e13696a68{stroke-dasharray:1.889 1.889}</style></defs><path class="af4260a3-0ab4-4592-b0e4-2ae43d2cdbf7" d="M0 16h119v553.45H0zM129 16h119v553.45H129zM258 16h119v553.45H258zM387 16h119v553.45H387zM516 16h119v553.45H516zM645 16h115v553.45H645z"/><path class="bc806f14-d82d-4a3c-bca5-3de433ba80f8" d="M10 137.804h109v30H10zM645 137.804h105v30H645z"/><path class="a4208f3a-203a-436e-a383-27501fc47bb8" d="M635 137.804h10v30h-10zM506 137.804h10v30h-10zM377 137.804h10v30h-10zM248 137.804h10v30h-10zM119 137.804h10v30h-10z"/><path class="bc806f14-d82d-4a3c-bca5-3de433ba80f8" d="M129 137.804h119v30H129zM258 137.822h119v30H258zM387 137.822h119v30H387zM516 137.822h119v30H516z"/><text class="f7e0d3cd-2bcb-4a6c-898e-d6f0ebcded07" transform="translate(10 40.788)">User</text><text class="f7e0d3cd-2bcb-4a6c-898e-d6f0ebcded07" transform="translate(139.167 40.788)">Server</text><text class="f7e0d3cd-2bcb-4a6c-898e-d6f0ebcded07" transform="translate(268.334 40.787)">Plug-in registry</text><text class="f7e0d3cd-2bcb-4a6c-898e-d6f0ebcded07" transform="translate(397.5 40.788)">Workspace</text><text class="f7e0d3cd-2bcb-4a6c-898e-d6f0ebcded07" transform="translate(526.5 40.788)">Plug-in</text><text class="f7e0d3cd-2bcb-4a6c-898e-d6f0ebcded07" transform="translate(655.5 40.788)">Broker</text><path class="a4f7a91a-3f9f-4d76-aaa0-e4ff85438a9b" d="M568.324 81.901H10.5"/><path class="a8433ddf-6d12-4f5e-909e-718d76d8057e" d="M566.865 76.914l8.635 4.987-8.635 4.986v-9.973z"/><text class="a6823188-ea3a-4166-a8e5-1b1e27a9c647" transform="translate(10 74.948)">Create plug-in</text><path class="a4f7a91a-3f9f-4d76-aaa0-e4ff85438a9b" d="M181.324 243.351H10.5"/><path class="a8433ddf-6d12-4f5e-909e-718d76d8057e" d="M179.865 238.365l8.635 4.986-8.635 4.986v-9.972z"/><text class="a6823188-ea3a-4166-a8e5-1b1e27a9c647" transform="translate(10 236.398)">Start workspace</text><path class="a4f7a91a-3f9f-4d76-aaa0-e4ff85438a9b" d="M310.407 278.351h-170.74"/><path class="a8433ddf-6d12-4f5e-909e-718d76d8057e" d="M308.948 273.365l8.635 4.986-8.635 4.986v-9.972z"/><text class="a6823188-ea3a-4166-a8e5-1b1e27a9c647" transform="translate(139.167 271.398)">Find plug-in in registry</text><path class="a4f7a91a-3f9f-4d76-aaa0-e4ff85438a9b" d="M237.75 544.463H66.676"/><path class="a8433ddf-6d12-4f5e-909e-718d76d8057e" d="M68.135 539.477l-8.635 4.986 8.635 4.987v-9.973z"/><text class="a6823188-ea3a-4166-a8e5-1b1e27a9c647" transform="translate(130.254 537.511)">Workspace is started</text><path class="a4f7a91a-3f9f-4d76-aaa0-e4ff85438a9b" d="M439.324 208.485H10.5"/><path class="a8433ddf-6d12-4f5e-909e-718d76d8057e" d="M437.865 203.499l8.635 4.986-8.635 4.986v-9.972z"/><text class="a6823188-ea3a-4166-a8e5-1b1e27a9c647" transform="translate(10 201.532)">Add plug-in to workspace</text><text class="a6823188-ea3a-4166-a8e5-1b1e27a9c647" transform="translate(9.5 109.947)">Publish plug-in metadata</text><g><path class="a4f7a91a-3f9f-4d76-aaa0-e4ff85438a9b" d="M10 116.901h300.24"/><path class="a8433ddf-6d12-4f5e-909e-718d76d8057e" d="M308.781 121.887l8.636-4.986-8.636-4.987v9.973z"/></g><path fill="#d9e8f7" d="M139.25 293.351h98.5v45h-98.5z"/><text class="a6823188-ea3a-4166-a8e5-1b1e27a9c647" transform="translate(149.25 312.613)">Find broker<tspan x="0" y="12">for plug-in</tspan></text><g><path class="a4f7a91a-3f9f-4d76-aaa0-e4ff85438a9b" d="M694.824 368.463H139.917"/><path class="a8433ddf-6d12-4f5e-909e-718d76d8057e" d="M693.365 363.477l8.635 4.986-8.635 4.987v-9.973z"/></g><text class="a6823188-ea3a-4166-a8e5-1b1e27a9c647" transform="translate(139.417 361.51)">Start broker and pass plug-in metadata</text><text class="a6823188-ea3a-4166-a8e5-1b1e27a9c647" transform="translate(627.881 396.511)">Parse plug-in metadata</text><g><path class="a4f7a91a-3f9f-4d76-aaa0-e4ff85438a9b" d="M582.676 403.463H748.5"/><path class="a8433ddf-6d12-4f5e-909e-718d76d8057e" d="M584.135 408.45l-8.635-4.987 8.635-4.986v9.973z"/></g><text class="a6823188-ea3a-4166-a8e5-1b1e27a9c647" transform="translate(622.557 431.511)">Download files if needed<tspan x="-15.125" y="18">Copy plug-in files if needed</tspan><tspan x="-62.083" y="36">Find or generate workspace changes</tspan></text><text class="a6823188-ea3a-4166-a8e5-1b1e27a9c647" transform="translate(672.936 502.511)">Send response</text><g><path class="a4f7a91a-3f9f-4d76-aaa0-e4ff85438a9b" d="M195.676 509.463H748.5"/><path class="a8433ddf-6d12-4f5e-909e-718d76d8057e" d="M197.135 514.45l-8.635-4.987 8.635-4.986v9.973z"/></g><g><path class="a4f7a91a-3f9f-4d76-aaa0-e4ff85438a9b" d="M453.676 474.463H748.5"/><path class="a8433ddf-6d12-4f5e-909e-718d76d8057e" d="M455.135 479.45l-8.635-4.987 8.635-4.986v9.973z"/></g><g><path class="f1d727a1-fe40-47a7-a316-a3e5e32da839" d="M320.417 116.901h1.5"/><path class="b842441e-2f8c-46bc-b5ec-803e13696a68" d="M323.806 116.901h2.833"/><path class="f1d727a1-fe40-47a7-a316-a3e5e32da839" d="M327.583 116.901h1.5v1.5"/><path stroke-dasharray="2.99 2.99" stroke="#b9b9b9" stroke-linecap="round" stroke-linejoin="round" fill="none" d="M329.083 121.39v153.966"/><path class="f1d727a1-fe40-47a7-a316-a3e5e32da839" d="M329.083 276.851v1.5h-1.5"/><path class="b842441e-2f8c-46bc-b5ec-803e13696a68" d="M325.695 278.351h-2.834"/><path class="f1d727a1-fe40-47a7-a316-a3e5e32da839" d="M321.917 278.351h-1.5"/></g><path class="bc806f14-d82d-4a3c-bca5-3de433ba80f8" d="M272.985 144.068h69.514v17.507h-69.514z"/><text class="a6823188-ea3a-4166-a8e5-1b1e27a9c647" transform="translate(294.939 157.128)">Plug-in creation process finished</text><g><text transform="translate(668.302 592.141)" font-size="10" font-family="RedHatText,&quot;Red Hat Text&quot;,Overpass,&quot;Helvetica Neue&quot;,Arial,sans-serif" fill="#f3f3f3">124_Codeready_1120</text><path fill="none" d="M0 569.123h760v40H0z"/></g></svg>