<svg id="e9cc0aff-8d5a-4edb-9176-4ab5c031c17a" data-name="artwork" xmlns="http://www.w3.org/2000/svg" width="760" height="663.095"><defs><style>.ae1a9c51-8cc8-4f92-8560-819c6474005d{fill:#e8e8e8}.ff2fbe5b-ebee-4b4c-a2ff-bb260cbfb415{fill:#06c}.a8ed803d-1b25-4175-9ba8-23261f084349{font-size:14px}.a0f708e6-eacc-4317-b485-eae233fef801,.a8ed803d-1b25-4175-9ba8-23261f084349,.aae8fa3c-4181-4db3-84fa-b687267c0008,.b9258f43-dcdd-4440-bb0a-75bf6383b075,.e481f048-b2bd-46c3-a38b-eec0a7b01bf5{fill:#151515}.a8ed803d-1b25-4175-9ba8-23261f084349,.b9258f43-dcdd-4440-bb0a-75bf6383b075{font-family:RedHatText,&quot;Red Hat Text&quot;,Overpass,&quot;Helvetica Neue&quot;,Arial,sans-serif;font-weight:700}.a0f708e6-eacc-4317-b485-eae233fef801,.e481f048-b2bd-46c3-a38b-eec0a7b01bf5{font-size:11px}.a0f708e6-eacc-4317-b485-eae233fef801{font-family:RedHatText,&quot;Red Hat Text&quot;,Overpass,&quot;Helvetica Neue&quot;,Arial,sans-serif;font-weight:500}.e9be48c9-f78f-43b6-886a-e8e981d3726c{fill:#fff}.b9258f43-dcdd-4440-bb0a-75bf6383b075{font-size:12px}.eb2626aa-763e-49fa-9ce9-5dc7bdfb45df{fill:#f3f3f3}.ac6dc3f2-f4a3-4676-9161-f0c5964ddb68,.ae493e8a-2f5c-4d25-938d-244f3617af91,.bb417a5a-3cef-46d9-a25a-8d833e949245,.bd4d2167-a066-4b2c-92b5-8bf131bb3d12,.e2f6f820-405c-433b-9156-d741b7b1f396,.ed94dbba-d063-4926-a3e7-3458631f60ad,.ff41825e-1b9c-467a-9c12-c65b4082b685{fill:none}.bb417a5a-3cef-46d9-a25a-8d833e949245,.ff41825e-1b9c-467a-9c12-c65b4082b685{stroke:#06c}.ac6dc3f2-f4a3-4676-9161-f0c5964ddb68,.ae493e8a-2f5c-4d25-938d-244f3617af91,.bb417a5a-3cef-46d9-a25a-8d833e949245,.bd4d2167-a066-4b2c-92b5-8bf131bb3d12,.e2f6f820-405c-433b-9156-d741b7b1f396,.ed94dbba-d063-4926-a3e7-3458631f60ad,.ff41825e-1b9c-467a-9c12-c65b4082b685{stroke-linecap:round;stroke-linejoin:round}.ff41825e-1b9c-467a-9c12-c65b4082b685{stroke-dasharray:2.991 2.991}.ed94dbba-d063-4926-a3e7-3458631f60ad{stroke:#fff;stroke-width:8px}.e2f6f820-405c-433b-9156-d741b7b1f396{stroke:#151515}.ac6dc3f2-f4a3-4676-9161-f0c5964ddb68,.ae493e8a-2f5c-4d25-938d-244f3617af91,.bd4d2167-a066-4b2c-92b5-8bf131bb3d12{stroke:#e8e8e8}.ae493e8a-2f5c-4d25-938d-244f3617af91{stroke-dasharray:2.96 2.96}.ac6dc3f2-f4a3-4676-9161-f0c5964ddb68{stroke-dasharray:3 3}.e481f048-b2bd-46c3-a38b-eec0a7b01bf5{font-family:RedHatText,&quot;Red Hat Text&quot;,Overpass,&quot;Helvetica Neue&quot;,Arial,sans-serif;font-style:italic}</style></defs><path class="ae1a9c51-8cc8-4f92-8560-819c6474005d" d="M9.936 196.083h740.128v417.076H9.936z"/><path class="ff2fbe5b-ebee-4b4c-a2ff-bb260cbfb415" d="M758.5 187.647V621.6H1.5V187.647h757m1.5-1.5H0V623.1h760V186.147z"/><path class="ae1a9c51-8cc8-4f92-8560-819c6474005d" d="M759 17v128.364H1V17h758m1-1H0v130.364h760V16z"/><text class="a8ed803d-1b25-4175-9ba8-23261f084349" transform="translate(19.999 46.66)">Workspaces</text><path class="ae1a9c51-8cc8-4f92-8560-819c6474005d" d="M84.936 75.968h160v50.064h-160z"/><text class="a0f708e6-eacc-4317-b485-eae233fef801" transform="translate(124.875 104.222)">Project sources</text><path class="ae1a9c51-8cc8-4f92-8560-819c6474005d" d="M514.564 75.968h160v50.064h-160z"/><text class="a0f708e6-eacc-4317-b485-eae233fef801" transform="translate(562.577 104.222)">App runtime</text><path class="e9be48c9-f78f-43b6-886a-e8e981d3726c" transform="rotate(-180 157.436 445.295)" d="M29.936 297.795h255v295h-255z"/><text class="b9258f43-dcdd-4440-bb0a-75bf6383b075" transform="translate(44.936 322.145)">Built-in IDE</text><path class="e9be48c9-f78f-43b6-886a-e8e981d3726c" transform="rotate(-180 104.936 372.795)" d="M54.936 347.795h100v50h-100z"/><path class="eb2626aa-763e-49fa-9ce9-5dc7bdfb45df" d="M54.936 347.795h100v50h-100z"/><text class="a0f708e6-eacc-4317-b485-eae233fef801" transform="translate(88.942 375.842)">Editor</text><path class="eb2626aa-763e-49fa-9ce9-5dc7bdfb45df" d="M54.936 402.795h100v50h-100z"/><text class="a0f708e6-eacc-4317-b485-eae233fef801" transform="translate(87.804 430.841)">Panels</text><path class="eb2626aa-763e-49fa-9ce9-5dc7bdfb45df" d="M159.936 457.795h100v50h-100z"/><text class="a0f708e6-eacc-4317-b485-eae233fef801" transform="translate(183.454 479.842)">Command<tspan x="7.854" y="12">palette</tspan></text><path class="eb2626aa-763e-49fa-9ce9-5dc7bdfb45df" d="M54.936 457.795h100v50h-100z"/><text class="a0f708e6-eacc-4317-b485-eae233fef801" transform="translate(76.496 485.842)">Debuggers</text><path class="e9be48c9-f78f-43b6-886a-e8e981d3726c" d="M729.064 298.8v293h-128v-293h128m1-1h-130v295h130v-295z"/><path class="eb2626aa-763e-49fa-9ce9-5dc7bdfb45df" d="M54.936 512.795h205v50h-205z"/><text class="a0f708e6-eacc-4317-b485-eae233fef801" transform="translate(108.85 540.842)">Other components</text><path class="e9be48c9-f78f-43b6-886a-e8e981d3726c" transform="rotate(-180 665.064 337.199)" d="M615.064 312.199h100v50h-100z"/><text class="a0f708e6-eacc-4317-b485-eae233fef801" transform="translate(647.277 334.246)">IntelliJ<tspan x="4.823" y="12">IDEA</tspan></text><path class="e9be48c9-f78f-43b6-886a-e8e981d3726c" transform="rotate(-180 665.064 391.943)" d="M615.064 366.943h100v50h-100z"/><text class="a0f708e6-eacc-4317-b485-eae233fef801" transform="translate(649.813 388.99)">Other<tspan x="3.487" y="12">IDEs</tspan></text><path class="bb417a5a-3cef-46d9-a25a-8d833e949245" d="M.5 186.147l1.475-.274"/><path class="ff41825e-1b9c-467a-9c12-c65b4082b685" d="M4.916 185.328l292.638-54.282"/><path class="bb417a5a-3cef-46d9-a25a-8d833e949245" d="M299.025 130.774l1.475-.274M459.5 130.5l1.475.274"/><path class="ff41825e-1b9c-467a-9c12-c65b4082b685" d="M463.916 131.319L756.555 185.6"/><path class="bb417a5a-3cef-46d9-a25a-8d833e949245" d="M758.025 185.873l1.475.274"/><path class="ed94dbba-d063-4926-a3e7-3458631f60ad" d="M394.904 180.268v9.887M365.096 180.268v9.887M380 180.268v9.887"/><path class="e2f6f820-405c-433b-9156-d741b7b1f396" d="M380 131v157.126"/><path class="aae8fa3c-4181-4db3-84fa-b687267c0008" d="M375.013 286.667l4.987 8.635 4.986-8.635h-9.973z"/><path class="e2f6f820-405c-433b-9156-d741b7b1f396" d="M157.436 287.926v-69.843h207.41V131"/><path class="aae8fa3c-4181-4db3-84fa-b687267c0008" d="M162.422 286.467l-4.986 8.635-4.986-8.635h9.972z"/><path class="e2f6f820-405c-433b-9156-d741b7b1f396" d="M665.064 287.926v-69.843h-270.16V131"/><path class="aae8fa3c-4181-4db3-84fa-b687267c0008" d="M670.05 286.467l-4.986 8.635-4.987-8.635h9.973z"/><path class="ff2fbe5b-ebee-4b4c-a2ff-bb260cbfb415" d="M458.5 72.5v57h-157v-57h157M460 71H300v60h160V71z"/><path class="ae1a9c51-8cc8-4f92-8560-819c6474005d" d="M304.968 75.968h150.064v50.064H304.968z"/><text transform="translate(370.452 104.047)" font-size="11" font-family="RedHatText,&quot;Red Hat Text&quot;,Overpass,&quot;Helvetica Neue&quot;,Arial,sans-serif" font-weight="700" fill="#151515">IDE</text><text class="a8ed803d-1b25-4175-9ba8-23261f084349" transform="translate(29.808 227.055)">IDE<tspan x="24.304" y="0" font-size="16"> </tspan><tspan x="27.744" y="0" font-weight="400" font-family="RedHatText,&quot;Red Hat Text&quot;,Overpass,&quot;Helvetica Neue&quot;,Arial,sans-serif" font-size="12">(zoom in)</tspan></text><path class="eb2626aa-763e-49fa-9ce9-5dc7bdfb45df" d="M159.936 402.795h100v50h-100z"/><text class="a0f708e6-eacc-4317-b485-eae233fef801" transform="translate(181.562 430.842)">Languages</text><path class="eb2626aa-763e-49fa-9ce9-5dc7bdfb45df" d="M159.936 347.795h100v50h-100z"/><text class="a0f708e6-eacc-4317-b485-eae233fef801" transform="translate(192.853 375.842)">Menus</text><text transform="translate(667.802 645.812)" font-size="10" font-family="RedHatText,&quot;Red Hat Text&quot;,Overpass,&quot;Helvetica Neue&quot;,Arial,sans-serif" fill="#f3f3f3">124_Codeready_1120</text><path fill="none" d="M0 622.795h760v40H0z"/><path class="bd4d2167-a066-4b2c-92b5-8bf131bb3d12" d="M44.936 576.295v1.5h1.5"/><path class="ae493e8a-2f5c-4d25-938d-244f3617af91" d="M49.396 577.795h217.56"/><path class="bd4d2167-a066-4b2c-92b5-8bf131bb3d12" d="M268.436 577.795h1.5v-1.5"/><path class="ac6dc3f2-f4a3-4676-9161-f0c5964ddb68" d="M269.936 573.295v-232.5"/><path class="bd4d2167-a066-4b2c-92b5-8bf131bb3d12" d="M269.936 339.295v-1.5h-1.5"/><path class="ae493e8a-2f5c-4d25-938d-244f3617af91" d="M265.476 337.795H47.916"/><path class="bd4d2167-a066-4b2c-92b5-8bf131bb3d12" d="M46.436 337.795h-1.5v1.5"/><path class="ac6dc3f2-f4a3-4676-9161-f0c5964ddb68" d="M44.936 342.295v232.5"/><path class="e9be48c9-f78f-43b6-886a-e8e981d3726c" d="M95.062 570.442H219.81v17.964H95.062z"/><text class="e481f048-b2bd-46c3-a38b-eec0a7b01bf5" transform="translate(100.385 581.426)">Extensible with plug-ins</text><path class="e9be48c9-f78f-43b6-886a-e8e981d3726c" transform="rotate(-180 442.25 445.295)" d="M314.75 297.795h255v295h-255z"/><text class="b9258f43-dcdd-4440-bb0a-75bf6383b075" transform="translate(329.75 322.145)">Custom IDE</text><path class="e9be48c9-f78f-43b6-886a-e8e981d3726c" transform="rotate(-180 389.75 372.795)" d="M339.75 347.795h100v50h-100z"/><path class="eb2626aa-763e-49fa-9ce9-5dc7bdfb45df" d="M339.75 347.795h100v50h-100z"/><text class="a0f708e6-eacc-4317-b485-eae233fef801" transform="translate(369.554 369.842)">Custom<tspan x="4.576" y="12">editor</tspan></text><path class="eb2626aa-763e-49fa-9ce9-5dc7bdfb45df" d="M339.75 457.795h100v50h-100z"/><text class="a0f708e6-eacc-4317-b485-eae233fef801" transform="translate(369.554 479.841)">Custom<tspan x="7.32" y="12">tools</tspan></text><path class="eb2626aa-763e-49fa-9ce9-5dc7bdfb45df" d="M339.75 512.795h205v50h-205zM339.75 402.795h100v50h-100zM444.75 457.795h100v50h-100zM444.75 402.795h100v50h-100z"/><text class="a0f708e6-eacc-4317-b485-eae233fef801" transform="translate(474.554 424.842)">Custom<tspan x="-2.843" y="12">branding</tspan></text><text class="a0f708e6-eacc-4317-b485-eae233fef801" transform="translate(474.554 479.842)">Custom<tspan x="4.064" y="12">layout</tspan></text><text class="a0f708e6-eacc-4317-b485-eae233fef801" transform="translate(393.664 540.841)">Other components</text><text class="a0f708e6-eacc-4317-b485-eae233fef801" transform="translate(369.554 424.842)">Custom<tspan x="3.438" y="12">panels</tspan></text><path class="eb2626aa-763e-49fa-9ce9-5dc7bdfb45df" d="M444.75 347.795h100v50h-100z"/><text class="a0f708e6-eacc-4317-b485-eae233fef801" transform="translate(474.554 369.842)">Custom<tspan x="3.19" y="12">menus</tspan></text><g><path class="bd4d2167-a066-4b2c-92b5-8bf131bb3d12" d="M330 576.295v1.5h1.5"/><path class="ae493e8a-2f5c-4d25-938d-244f3617af91" d="M334.46 577.795h217.56"/><path class="bd4d2167-a066-4b2c-92b5-8bf131bb3d12" d="M553.5 577.795h1.5v-1.5"/><path class="ac6dc3f2-f4a3-4676-9161-f0c5964ddb68" d="M555 573.295v-232.5"/><path class="bd4d2167-a066-4b2c-92b5-8bf131bb3d12" d="M555 339.295v-1.5h-1.5"/><path class="ae493e8a-2f5c-4d25-938d-244f3617af91" d="M550.54 337.795H332.98"/><path class="bd4d2167-a066-4b2c-92b5-8bf131bb3d12" d="M331.5 337.795H330v1.5"/><path class="ac6dc3f2-f4a3-4676-9161-f0c5964ddb68" d="M330 342.295v232.5"/></g><path class="e9be48c9-f78f-43b6-886a-e8e981d3726c" d="M381.192 570.442h122.617v17.964H381.192z"/><text class="e481f048-b2bd-46c3-a38b-eec0a7b01bf5" transform="translate(385.45 581.426)">Extensible with plug-ins</text><path class="ae1a9c51-8cc8-4f92-8560-819c6474005d" d="M92.162 243.778h479.847v31.602H92.162zM614.223 248.778h101.681v21.602H614.223z"/><text class="e481f048-b2bd-46c3-a38b-eec0a7b01bf5" transform="translate(118.485 257.49)">Use default IDE <tspan x="-20.146" y="12">and extend with plug-ins</tspan></text><text class="e481f048-b2bd-46c3-a38b-eec0a7b01bf5" transform="translate(618.266 262.703)">Use third-party IDE</text><text class="e481f048-b2bd-46c3-a38b-eec0a7b01bf5" transform="translate(292.943 257.491)">Build custom IDE with Eclipse Theia <tspan x="27.665" y="12">and extend with plug-ins</tspan></text></svg>